<svg xmlns="http://www.w3.org/2000/svg" xmlns:xlink="http://www.w3.org/1999/xlink" viewBox="0 0 112.01 87.92"><defs><style>.cls-1{fill:none;stroke-miterlimit:10;stroke-width:2px;stroke:url(#New_Gradient_Swatch_3);}.cls-2{fill:#fff;}.cls-3{fill:#231f20;}.cls-4{fill:url(#New_Gradient_Swatch_3-2);}.cls-5{fill:url(#New_Gradient_Swatch_3-3);}</style><linearGradient id="New_Gradient_Swatch_3" y1="43.96" x2="112.01" y2="43.96" gradientUnits="userSpaceOnUse"><stop offset="0" stop-color="#ffda4e"/><stop offset="0.32" stop-color="#ecba27"/><stop offset="0.68" stop-color="#d8a628"/><stop offset="1" stop-color="#fbf287"/><stop offset="1" stop-color="#f5be20"/></linearGradient><linearGradient id="New_Gradient_Swatch_3-2" x1="0.87" y1="21.08" x2="107.16" y2="21.08" xlink:href="#New_Gradient_Swatch_3"/><linearGradient id="New_Gradient_Swatch_3-3" x1="0.87" y1="17.51" x2="107.17" y2="17.51" xlink:href="#New_Gradient_Swatch_3"/></defs><g id="Layer_2" data-name="Layer 2"><g id="Layer_1-2" data-name="Layer 1"><path class="cls-1" d="M110.63,62.47c-.75-.42-.14-.76,0-1.3a13.23,13.23,0,0,0,.2-3.77,1.88,1.88,0,0,0-.35-1.17,3.19,3.19,0,0,0-2.5-1.51h-.24s0,0,0,0c-.52,0-.39-.68-.41-1.1V27.13c0-1.51,0-2.61,0-2.9a.86.86,0,0,0-.09-.44.74.74,0,0,0-.17-.2,2,2,0,0,0-.3-.18q-2.33-1.11-4.72-2c-6.71-2.95-13.47-5.78-20.23-8.63-4.51-2-9.06-3.84-13.53-5.89A72.83,72.83,0,0,1,61.53,4,53.79,53.79,0,0,1,55,1.18,1.84,1.84,0,0,0,54.1,1a1.91,1.91,0,0,0-.92.19c-11,4.61-21.79,9.61-32.82,14.09q-7.23,3.24-14.58,6.3a40.25,40.25,0,0,0-4.22,2,1,1,0,0,0-.53.64c0,.41,0,.83,0,1.24v1.52H1c0,.72,0,1.43,0,2.15v9.65c0,16,.09,32.11.06,48.16H106.49c.38,0,.78,0,.79-.47,0-.23,0-.44,0-.67V64.6c0-.17,0-.34,0-.5,0-.45.2-.66.6-.77.19,0,.42,0,.55-.14a.64.64,0,0,1,.26-.15h.11a.4.4,0,0,1,.15,0l-.13,0h-.1a1.78,1.78,0,0,1,.47.19,1.84,1.84,0,0,0,1.09.39l-.16,0h.27a1.16,1.16,0,0,0,.47-.12C110.8,63.15,110.84,62.59,110.63,62.47Z"/><path class="cls-2" d="M53.78,1a2.41,2.41,0,0,0-.58.17c-11,4.61-21.79,9.61-32.82,14.09q-7.24,3.24-14.58,6.3a41.37,41.37,0,0,0-4.23,2,1,1,0,0,0-.52.64C1,25,1,25.84,1,26.77v0l-.14.05V25.37c0-.42,0-.83,0-1.24a1,1,0,0,1,.52-.65,40.32,40.32,0,0,1,4.23-1.95Q13,18.47,20.25,15.22c11-4.48,21.82-9.48,32.81-14.09A1.91,1.91,0,0,1,53.78,1Z"/><path class="cls-2" d="M107,27V27l-.12,0Q80.86,16.55,54.77,6.18c-.15,0-.28-.1-.41-.13A2.78,2.78,0,0,0,54,6h0a2.2,2.2,0,0,1,.95.17q26,10.4,52,20.73l.11.05Z"/><path class="cls-2" d="M39.8,48.43c0,.58,0,1.16,0,1.74v32.3c0,1-.1,1.12-1.15,1.12H4.94c-1,0-1.06-.11-1.06-1q0-17.11,0-34.21c0-.79.84-.72,1.41-.71H38.39C39,47.64,39.85,47.58,39.8,48.43Z"/><path class="cls-2" d="M52.07,62.89c-.86.38-1.08-.49-1.35-1.08-.27-.81-.26-.81-1.07-.81H48.14c-.87,0-1.19.26-1.34,1.09s-.37,1-1.35.78c.68-2.55,1.72-5,2.58-7.45.07-.28.19-.47.48-.45s.73-.21,1,.27q1.17,2.74,2.1,5.58A4.08,4.08,0,0,1,52.07,62.89Z"/><path class="cls-2" d="M61,61.93v1H56.39c0-.31,0-.57,0-.84V55.7c0-.27-.12-.66.35-.71a.74.74,0,0,1,.71.73c0,1.05,0,2.1,0,3.15V61c0,.88,0,.9,1,.91Z"/><path class="cls-2" d="M62.36,72.29v1c-.53,0-1,0-1.57,0s-.67.15-.58.76c.1,1.54,0,3.12.13,4.67,0,.88-.36,1.25-1.29,1.12C59,77.94,59,76,59,74.1c0-.75,0-.8-.8-.81-.35,0-.71,0-1.15,0,0-.36,0-.64,0-1Z"/><path class="cls-2" d="M69.88,55.42a.5.5,0,0,1-.53.59H67.28c-.87,0-.89,0-.91.89,0,1.37,0,1.37,1.34,1.37h1.61v1.06H67.24c-.8,0-.85,0-.87.83s0,1.27,0,1.91-.11.87-1,.84V55c1.38,0,2.71,0,4,0A.65.65,0,0,1,69.88,55.42Z"/><path class="cls-2" d="M70.79,78.88l.92.05c0,.37,0,.64-.06.95H66.6V72.3h5c0,.27,0,.56.07,1-1.21.09-2.32,0-3.52,0-.65,0-.77.14-.79.78,0,.11,0,.22,0,.33,0,.76,0,.8.79.81,1,0,2,0,3.12,0v1c-.8,0-1.57,0-2.32,0-1.39-.13-1.74.45-1.6,1.88,0,.63.08.7.73.72C69,78.9,69.89,78.88,70.79,78.88Z"/><path class="cls-2" d="M79.66,62.89c-.64.21-1,.11-1.16-.5S78.07,61,77.24,61s-2.72-.46-2.89.92c-.09,1.07-.18,1.14-1.36,1,0-.19,0-.42.05-.58,1-2.25,1.53-4.71,2.53-7a.86.86,0,0,1,1.48,0c.6,1.26,1,2.62,1.5,3.92S79.74,61.59,79.66,62.89Z"/><path class="cls-2" d="M82.19,79.9H81a3.34,3.34,0,0,0-.08-.49c-.34-1.12-.37-1.14-1.55-1.13h-.83c-1.55,0-1.62.06-2,1.61H75.29a37.62,37.62,0,0,0,2-5.71,8.41,8.41,0,0,1,.74-2c.59-.06,1.32-.07,1.59.57C80.51,75.18,81.31,77.51,82.19,79.9Z"/><path class="cls-2" d="M89.72,62.89c-1.1.2-1.12.19-1.57-.69a7.25,7.25,0,0,0-1.68-2.39c-.36-.31-.7-.61-1.16-.42a1,1,0,0,0-.66,1.13c0,.77,0,1.55,0,2.3-.74.23-1.06.06-1.07-.61V55.65c0-.5.24-.69.71-.69,1.47.08,3-.3,4.38.48a1.12,1.12,0,0,1,.65,1.16,4.14,4.14,0,0,1-.25,1.68,1.61,1.61,0,0,1-.85.71c-.71.27-.8.54-.24,1a7.61,7.61,0,0,1,1.67,2.51A1.23,1.23,0,0,1,89.72,62.89Z"/><path class="cls-2" d="M92.89,72.28V79.9H92c-.16-1.74,0-3.48-.06-5.23,0-.26.07-.62-.33-.61-.1,0-.23.36-.29.57-.46,1.54-.77,3.14-1.14,4.7-.3.65-.32.64-1.22.52q-.6-2.61-1.22-5.27h-.22c-.4,1.42-.1,3-.18,4.43,0,.27,0,.54,0,.87h-1V72.23h1.3c.5,0,.55.5.62.76.59,1.42.5,3.08,1.25,4.4,0,0,0,0,.12.06s.19-.08.22-.15a3,3,0,0,0,.37-1.23,12.93,12.93,0,0,1,.4-2.49,5.7,5.7,0,0,1,.44-1.3Z"/><path class="cls-2" d="M99.26,61a2.16,2.16,0,0,1-1.94,2,5.34,5.34,0,0,1-2-.2,2.21,2.21,0,0,1-1.38-2.06c-.12-1.87,0-3.75,0-5.72h1c.12,1.61.07,3.2,0,4.81a2.71,2.71,0,0,0,.38,1.48,1.59,1.59,0,0,0,2.17.44,1.67,1.67,0,0,0,.74-1.46c-.06-1.76,0-3.49,0-5.25h1C99.36,57,99.25,59,99.26,61Z"/><path class="cls-2" d="M104.92,58.53c-.15,1.51.21,3.16,1.93,3.51v.85a1.27,1.27,0,0,1-1.11-.12,3.31,3.31,0,0,1-1.91-2.83c0-.17-.13-.31-.17-.47s-.19-.49-.14-.7a17.12,17.12,0,0,1,.73-2.4A2.86,2.86,0,0,1,106.83,55c0,.14.07.3.09.45a1.67,1.67,0,0,1,0,.39A2.49,2.49,0,0,0,104.92,58.53Z"/><path class="cls-2" d="M107.82,54.67h0Z"/><path class="cls-2" d="M108.9,60.18c-.34.8-.93.16-1.67.06V56.33c.91-.13,1.28.54,1.63,1.07A2.63,2.63,0,0,1,108.9,60.18Z"/><path class="cls-2" d="M110.16,63.57a1.91,1.91,0,0,1-1.09-.39,1.78,1.78,0,0,0-.47-.19h.1a1.21,1.21,0,0,1,.52.2A2.21,2.21,0,0,0,110.16,63.57Z"/><path d="M79.72,75.6c-.2-.5-.3-1-.49-1.55a.74.74,0,0,0-.39-.44c-.27-.08-.44.09-.51.39a9.46,9.46,0,0,1-.47,1.57c-.4,1-.25,1.25.78,1.25.15,0,.29,0,.42,0C79.76,76.73,80,76.24,79.72,75.6ZM49.94,59c-.3-.8-.62-1.6-.95-2.39,0-.11-.23-.25-.27-.23a.71.71,0,0,0-.3.32A15.33,15.33,0,0,1,48,58.25c-.45,1.15-.36,1.31.89,1.29.24,0,.49,0,.74,0A.36.36,0,0,0,49.94,59Zm26.63-2.37c0-.1-.21-.25-.26-.25a.67.67,0,0,0-.31.31c-.32.87-.63,1.76-1,2.85.76,0,1.37,0,2,0,.29,0,.37-.18.36-.51A6.89,6.89,0,0,0,76.57,56.63Zm11.64-.2a1,1,0,0,0-1.09-.79h-.83c-.36,0-.72,0-1.07,0a.84.84,0,0,0-.45.16,2.29,2.29,0,0,0,.33,2.25c.07.05.15.11.22.09.74-.12,1.52.11,2.24-.26A1.24,1.24,0,0,0,88.21,56.43Zm-56.84,4.1c.38-1.42,1.1-2.71,1.45-4.15A6.73,6.73,0,0,0,33,54.21a1.84,1.84,0,0,0-.59-1.12,2.81,2.81,0,0,0-2.39-.8,1.49,1.49,0,0,0-1.09.48c-.48.6-.95,1.19-1.45,1.78s-1.06,1.25-1.58,1.89c-1.06,1.29-2.13,2.58-3.19,3.88-.07.08-.12.17-.19.26C22,61.31,21.5,62,21,62.75c-.38.53-.79,1-1.12,1.61a1.44,1.44,0,0,1-1.42.92c-.84-.06-1.66-.17-2.5-.27a10.31,10.31,0,0,0-4.65.28,1,1,0,0,0-.61,1.44,14.88,14.88,0,0,0,1.08,1.43,1.75,1.75,0,0,0,1.66.71,5.34,5.34,0,0,0,1.84-.27,5.26,5.26,0,0,1,1.66-.22l-1.31,1.73c-.31.41-.62.82-.92,1.24s-.4.64-.63,1c-.36.51-.77,1-1.1,1.5-.53.83-1.05,1.67-1.53,2.52a1.44,1.44,0,0,0-.17.85,1.75,1.75,0,0,0,2.47.76c.47-.39,1.09-.61,1.32-1.27a6,6,0,0,1,.55-.9,23,23,0,0,0,1.79-2.89c.7-1.61,1.66-3.07,2.49-4.6a.75.75,0,0,1,.9-.41,2.5,2.5,0,0,1,1.63,1,16,16,0,0,1,.95,1.6,10,10,0,0,1,1.17,2.68,3,3,0,0,0,.44,1.2,2.33,2.33,0,0,0,2.21,1.17c.9-.12,1.19-.34,1.25-1.28s.21-1.94.33-2.91c0-.08.08-.14.11-.23.08-.31.16-.62.21-.94s0-.56,0-.83c.19-.81.42-1.62.61-2.44a1.1,1.1,0,0,1,1.19-1c.25,0,.54.06.73,0a1.62,1.62,0,0,0,.71-.71c.06-.15-.25-.53-.47-.67a2.12,2.12,0,0,0-.87-.18c-.4,0-.68-.23-.56-.64C30.73,62.59,31.09,61.57,31.37,60.53Zm-4.92,6.79a4.1,4.1,0,0,0-.3,2,4.68,4.68,0,0,1-.16.83l-.27.06c-.63-1.43-2.15-2-3.1-3.12.11-.08.19-.18.28-.19l3.56-.35C26.46,66.86,26.55,67.15,26.45,67.32Zm1.89-8.91a7.22,7.22,0,0,0-.5,1.7A21.71,21.71,0,0,1,27.2,63a1.12,1.12,0,0,0,0,.41c0,.79-.38,1.14-1.19,1.18-.33,0-.67,0-1,0s-.84.18-1.26.24a12.22,12.22,0,0,1-1.29.08,7.2,7.2,0,0,1,2-3,7.26,7.26,0,0,0,1-1.38,18,18,0,0,1,3-3.57A2.49,2.49,0,0,1,28.34,58.41ZM53,6.18C35.69,13,18.42,20,1,26.79H1v0C18.45,20.05,35.77,13,53.16,6.16l.4-.12A2.19,2.19,0,0,0,53,6.18ZM88.21,56.43a1,1,0,0,0-1.09-.79h-.83c-.36,0-.72,0-1.07,0a.84.84,0,0,0-.45.16,2.29,2.29,0,0,0,.33,2.25c.07.05.15.11.22.09.74-.12,1.52.11,2.24-.26A1.24,1.24,0,0,0,88.21,56.43ZM79.72,75.6c-.2-.5-.3-1-.49-1.55a.74.74,0,0,0-.39-.44c-.27-.08-.44.09-.51.39a9.46,9.46,0,0,1-.47,1.57c-.4,1-.25,1.25.78,1.25.15,0,.29,0,.42,0C79.76,76.73,80,76.24,79.72,75.6Zm-3.15-19c0-.1-.21-.25-.26-.25a.67.67,0,0,0-.31.31c-.32.87-.63,1.76-1,2.85.76,0,1.37,0,2,0,.29,0,.37-.18.36-.51A6.89,6.89,0,0,0,76.57,56.63ZM49.94,59c-.3-.8-.62-1.6-.95-2.39,0-.11-.23-.25-.27-.23a.71.71,0,0,0-.3.32A15.33,15.33,0,0,1,48,58.25c-.45,1.15-.36,1.31.89,1.29.24,0,.49,0,.74,0A.36.36,0,0,0,49.94,59ZM31.37,60.53c.38-1.42,1.1-2.71,1.45-4.15A6.73,6.73,0,0,0,33,54.21a1.84,1.84,0,0,0-.59-1.12,2.81,2.81,0,0,0-2.39-.8,1.49,1.49,0,0,0-1.09.48c-.48.6-.95,1.19-1.45,1.78s-1.06,1.25-1.58,1.89c-1.06,1.29-2.13,2.58-3.19,3.88-.07.08-.12.17-.19.26C22,61.31,21.5,62,21,62.75c-.38.53-.79,1-1.12,1.61a1.44,1.44,0,0,1-1.42.92c-.84-.06-1.66-.17-2.5-.27a10.31,10.31,0,0,0-4.65.28,1,1,0,0,0-.61,1.44,14.88,14.88,0,0,0,1.08,1.43,1.75,1.75,0,0,0,1.66.71,5.34,5.34,0,0,0,1.84-.27,5.26,5.26,0,0,1,1.66-.22l-1.31,1.73c-.31.41-.62.82-.92,1.24s-.4.64-.63,1c-.36.51-.77,1-1.1,1.5-.53.83-1.05,1.67-1.53,2.52a1.44,1.44,0,0,0-.17.85,1.75,1.75,0,0,0,2.47.76c.47-.39,1.09-.61,1.32-1.27a6,6,0,0,1,.55-.9,23,23,0,0,0,1.79-2.89c.7-1.61,1.66-3.07,2.49-4.6a.75.75,0,0,1,.9-.41,2.5,2.5,0,0,1,1.63,1,16,16,0,0,1,.95,1.6,10,10,0,0,1,1.17,2.68,3,3,0,0,0,.44,1.2,2.33,2.33,0,0,0,2.21,1.17c.9-.12,1.19-.34,1.25-1.28s.21-1.94.33-2.91c0-.08.08-.14.11-.23.08-.31.16-.62.21-.94s0-.56,0-.83c.19-.81.42-1.62.61-2.44a1.1,1.1,0,0,1,1.19-1c.25,0,.54.06.73,0a1.62,1.62,0,0,0,.71-.71c.06-.15-.25-.53-.47-.67a2.12,2.12,0,0,0-.87-.18c-.4,0-.68-.23-.56-.64C30.73,62.59,31.09,61.57,31.37,60.53Zm-4.92,6.79a4.1,4.1,0,0,0-.3,2,4.68,4.68,0,0,1-.16.83l-.27.06c-.63-1.43-2.15-2-3.1-3.12.11-.08.19-.18.28-.19l3.56-.35C26.46,66.86,26.55,67.15,26.45,67.32Zm1.89-8.91a7.22,7.22,0,0,0-.5,1.7A21.71,21.71,0,0,1,27.2,63a1.12,1.12,0,0,0,0,.41c0,.79-.38,1.14-1.19,1.18-.33,0-.67,0-1,0s-.84.18-1.26.24a12.22,12.22,0,0,1-1.29.08,7.2,7.2,0,0,1,2-3,7.26,7.26,0,0,0,1-1.38,18,18,0,0,1,3-3.57A2.49,2.49,0,0,1,28.34,58.41Zm3,2.12c.38-1.42,1.1-2.71,1.45-4.15A6.73,6.73,0,0,0,33,54.21a1.84,1.84,0,0,0-.59-1.12,2.81,2.81,0,0,0-2.39-.8,1.49,1.49,0,0,0-1.09.48c-.48.6-.95,1.19-1.45,1.78s-1.06,1.25-1.58,1.89c-1.06,1.29-2.13,2.58-3.19,3.88-.07.08-.12.17-.19.26C22,61.31,21.5,62,21,62.75c-.38.53-.79,1-1.12,1.61a1.44,1.44,0,0,1-1.42.92c-.84-.06-1.66-.17-2.5-.27a10.31,10.31,0,0,0-4.65.28,1,1,0,0,0-.61,1.44,14.88,14.88,0,0,0,1.08,1.43,1.75,1.75,0,0,0,1.66.71,5.34,5.34,0,0,0,1.84-.27,5.26,5.26,0,0,1,1.66-.22l-1.31,1.73c-.31.41-.62.82-.92,1.24s-.4.64-.63,1c-.36.51-.77,1-1.1,1.5-.53.83-1.05,1.67-1.53,2.52a1.44,1.44,0,0,0-.17.85,1.75,1.75,0,0,0,2.47.76c.47-.39,1.09-.61,1.32-1.27a6,6,0,0,1,.55-.9,23,23,0,0,0,1.79-2.89c.7-1.61,1.66-3.07,2.49-4.6a.75.75,0,0,1,.9-.41,2.5,2.5,0,0,1,1.63,1,16,16,0,0,1,.95,1.6,10,10,0,0,1,1.17,2.68,3,3,0,0,0,.44,1.2,2.33,2.33,0,0,0,2.21,1.17c.9-.12,1.19-.34,1.25-1.28s.21-1.94.33-2.91c0-.08.08-.14.11-.23.08-.31.16-.62.21-.94s0-.56,0-.83c.19-.81.42-1.62.61-2.44a1.1,1.1,0,0,1,1.19-1c.25,0,.54.06.73,0a1.62,1.62,0,0,0,.71-.71c.06-.15-.25-.53-.47-.67a2.12,2.12,0,0,0-.87-.18c-.4,0-.68-.23-.56-.64C30.73,62.59,31.09,61.57,31.37,60.53Zm-4.92,6.79a4.1,4.1,0,0,0-.3,2,4.68,4.68,0,0,1-.16.83l-.27.06c-.63-1.43-2.15-2-3.1-3.12.11-.08.19-.18.28-.19l3.56-.35C26.46,66.86,26.55,67.15,26.45,67.32Zm1.89-8.91a7.22,7.22,0,0,0-.5,1.7A21.71,21.71,0,0,1,27.2,63a1.12,1.12,0,0,0,0,.41c0,.79-.38,1.14-1.19,1.18-.33,0-.67,0-1,0s-.84.18-1.26.24a12.22,12.22,0,0,1-1.29.08,7.2,7.2,0,0,1,2-3,7.26,7.26,0,0,0,1-1.38,18,18,0,0,1,3-3.57A2.49,2.49,0,0,1,28.34,58.41Zm21.6.59c-.3-.8-.62-1.6-.95-2.39,0-.11-.23-.25-.27-.23a.71.71,0,0,0-.3.32A15.33,15.33,0,0,1,48,58.25c-.45,1.15-.36,1.31.89,1.29.24,0,.49,0,.74,0A.36.36,0,0,0,49.94,59Zm26.63-2.37c0-.1-.21-.25-.26-.25a.67.67,0,0,0-.31.31c-.32.87-.63,1.76-1,2.85.76,0,1.37,0,2,0,.29,0,.37-.18.36-.51A6.89,6.89,0,0,0,76.57,56.63Zm3.15,19c-.2-.5-.3-1-.49-1.55a.74.74,0,0,0-.39-.44c-.27-.08-.44.09-.51.39a9.46,9.46,0,0,1-.47,1.57c-.4,1-.25,1.25.78,1.25.15,0,.29,0,.42,0C79.76,76.73,80,76.24,79.72,75.6Zm8.49-19.17a1,1,0,0,0-1.09-.79h-.83c-.36,0-.72,0-1.07,0a.84.84,0,0,0-.45.16,2.29,2.29,0,0,0,.33,2.25c.07.05.15.11.22.09.74-.12,1.52.11,2.24-.26A1.24,1.24,0,0,0,88.21,56.43Zm20,6.69c-.12.11-.36.09-.54.14-.4.11-.64.32-.61.77,0,.16,0,.33,0,.5V85.7c0,.23,0,.44,0,.67,0,.4-.31.46-.64.47.38,0,.78,0,.79-.47,0-.23,0-.44,0-.67V64.53c0-.17,0-.34,0-.5,0-.45.2-.66.6-.77.19,0,.42,0,.55-.14a.64.64,0,0,1,.26-.15A.46.46,0,0,0,108.16,63.12Zm2.11.42a1.16,1.16,0,0,0,.47-.12c-.07-.34,0-.9-.24-1-.75-.42-.14-.76,0-1.3a13.23,13.23,0,0,0,.2-3.77,1.88,1.88,0,0,0-.35-1.17,3.19,3.19,0,0,0-2.5-1.51,3.34,3.34,0,0,1,2.36,1.51,1.94,1.94,0,0,1,.34,1.17,12.87,12.87,0,0,1-.2,3.77,1.35,1.35,0,0,1-.08.24c-.08.15-.16.29-.22.42a.37.37,0,0,0,0,.39s0,0,0,0a.79.79,0,0,0,.29.23.45.45,0,0,1,.15.31,0,0,0,0,0,0,0,1.53,1.53,0,0,1,0,.36,2.53,2.53,0,0,0,0,.32l-.23.09Zm-78.9-3c.38-1.42,1.1-2.71,1.45-4.15A6.73,6.73,0,0,0,33,54.21a1.84,1.84,0,0,0-.59-1.12,2.81,2.81,0,0,0-2.39-.8,1.49,1.49,0,0,0-1.09.48c-.48.6-.95,1.19-1.45,1.78s-1.06,1.25-1.58,1.89c-1.06,1.29-2.13,2.58-3.19,3.88-.07.08-.12.17-.19.26C22,61.31,21.5,62,21,62.75c-.38.53-.79,1-1.12,1.61a1.44,1.44,0,0,1-1.42.92c-.84-.06-1.66-.17-2.5-.27a10.31,10.31,0,0,0-4.65.28,1,1,0,0,0-.61,1.44,14.88,14.88,0,0,0,1.08,1.43,1.75,1.75,0,0,0,1.66.71,5.34,5.34,0,0,0,1.84-.27,5.26,5.26,0,0,1,1.66-.22l-1.31,1.73c-.31.41-.62.82-.92,1.24s-.4.64-.63,1c-.36.51-.77,1-1.1,1.5-.53.83-1.05,1.67-1.53,2.52a1.44,1.44,0,0,0-.17.85,1.75,1.75,0,0,0,2.47.76c.47-.39,1.09-.61,1.32-1.27a6,6,0,0,1,.55-.9,23,23,0,0,0,1.79-2.89c.7-1.61,1.66-3.07,2.49-4.6a.75.75,0,0,1,.9-.41,2.5,2.5,0,0,1,1.63,1,16,16,0,0,1,.95,1.6,10,10,0,0,1,1.17,2.68,3,3,0,0,0,.44,1.2,2.33,2.33,0,0,0,2.21,1.17c.9-.12,1.19-.34,1.25-1.28s.21-1.94.33-2.91c0-.08.08-.14.11-.23.08-.31.16-.62.21-.94s0-.56,0-.83c.19-.81.42-1.62.61-2.44a1.1,1.1,0,0,1,1.19-1c.25,0,.54.06.73,0a1.62,1.62,0,0,0,.71-.71c.06-.15-.25-.53-.47-.67a2.12,2.12,0,0,0-.87-.18c-.4,0-.68-.23-.56-.64C30.73,62.59,31.09,61.57,31.37,60.53Zm-4.92,6.79a4.1,4.1,0,0,0-.3,2,4.68,4.68,0,0,1-.16.83l-.27.06c-.63-1.43-2.15-2-3.1-3.12.11-.08.19-.18.28-.19l3.56-.35C26.46,66.86,26.55,67.15,26.45,67.32Zm1.89-8.91a7.22,7.22,0,0,0-.5,1.7A21.71,21.71,0,0,1,27.2,63a1.12,1.12,0,0,0,0,.41c0,.79-.38,1.14-1.19,1.18-.33,0-.67,0-1,0s-.84.18-1.26.24a12.22,12.22,0,0,1-1.29.08,7.2,7.2,0,0,1,2-3,7.26,7.26,0,0,0,1-1.38,18,18,0,0,1,3-3.57A2.49,2.49,0,0,1,28.34,58.41Zm21.6.59c-.3-.8-.62-1.6-.95-2.39,0-.11-.23-.25-.27-.23a.71.71,0,0,0-.3.32A15.33,15.33,0,0,1,48,58.25c-.45,1.15-.36,1.31.89,1.29.24,0,.49,0,.74,0A.36.36,0,0,0,49.94,59Zm26.63-2.37c0-.1-.21-.25-.26-.25a.67.67,0,0,0-.31.31c-.32.87-.63,1.76-1,2.85.76,0,1.37,0,2,0,.29,0,.37-.18.36-.51A6.89,6.89,0,0,0,76.57,56.63Zm3.15,19c-.2-.5-.3-1-.49-1.55a.74.74,0,0,0-.39-.44c-.27-.08-.44.09-.51.39a9.46,9.46,0,0,1-.47,1.57c-.4,1-.25,1.25.78,1.25.15,0,.29,0,.42,0C79.76,76.73,80,76.24,79.72,75.6Zm8.49-19.17a1,1,0,0,0-1.09-.79h-.83c-.36,0-.72,0-1.07,0a.84.84,0,0,0-.45.16,2.29,2.29,0,0,0,.33,2.25c.07.05.15.11.22.09.74-.12,1.52.11,2.24-.26A1.24,1.24,0,0,0,88.21,56.43Zm0,0a1,1,0,0,0-1.09-.79h-.83c-.36,0-.72,0-1.07,0a.84.84,0,0,0-.45.16,2.29,2.29,0,0,0,.33,2.25c.07.05.15.11.22.09.74-.12,1.52.11,2.24-.26A1.24,1.24,0,0,0,88.21,56.43ZM79.72,75.6c-.2-.5-.3-1-.49-1.55a.74.74,0,0,0-.39-.44c-.27-.08-.44.09-.51.39a9.46,9.46,0,0,1-.47,1.57c-.4,1-.25,1.25.78,1.25.15,0,.29,0,.42,0C79.76,76.73,80,76.24,79.72,75.6Zm-3.15-19c0-.1-.21-.25-.26-.25a.67.67,0,0,0-.31.31c-.32.87-.63,1.76-1,2.85.76,0,1.37,0,2,0,.29,0,.37-.18.36-.51A6.89,6.89,0,0,0,76.57,56.63ZM49.94,59c-.3-.8-.62-1.6-.95-2.39,0-.11-.23-.25-.27-.23a.71.71,0,0,0-.3.32A15.33,15.33,0,0,1,48,58.25c-.45,1.15-.36,1.31.89,1.29.24,0,.49,0,.74,0A.36.36,0,0,0,49.94,59ZM31.37,60.53c.38-1.42,1.1-2.71,1.45-4.15A6.73,6.73,0,0,0,33,54.21a1.84,1.84,0,0,0-.59-1.12,2.81,2.81,0,0,0-2.39-.8,1.49,1.49,0,0,0-1.09.48c-.48.6-.95,1.19-1.45,1.78s-1.06,1.25-1.58,1.89c-1.06,1.29-2.13,2.58-3.19,3.88-.07.08-.12.17-.19.26C22,61.31,21.5,62,21,62.75c-.38.53-.79,1-1.12,1.61a1.44,1.44,0,0,1-1.42.92c-.84-.06-1.66-.17-2.5-.27a10.31,10.31,0,0,0-4.65.28,1,1,0,0,0-.61,1.44,14.88,14.88,0,0,0,1.08,1.43,1.75,1.75,0,0,0,1.66.71,5.34,5.34,0,0,0,1.84-.27,5.26,5.26,0,0,1,1.66-.22l-1.31,1.73c-.31.41-.62.82-.92,1.24s-.4.64-.63,1c-.36.51-.77,1-1.1,1.5-.53.83-1.05,1.67-1.53,2.52a1.44,1.44,0,0,0-.17.85,1.75,1.75,0,0,0,2.47.76c.47-.39,1.09-.61,1.32-1.27a6,6,0,0,1,.55-.9,23,23,0,0,0,1.79-2.89c.7-1.61,1.66-3.07,2.49-4.6a.75.75,0,0,1,.9-.41,2.5,2.5,0,0,1,1.63,1,16,16,0,0,1,.95,1.6,10,10,0,0,1,1.17,2.68,3,3,0,0,0,.44,1.2,2.33,2.33,0,0,0,2.21,1.17c.9-.12,1.19-.34,1.25-1.28s.21-1.94.33-2.91c0-.08.08-.14.11-.23.08-.31.16-.62.21-.94s0-.56,0-.83c.19-.81.42-1.62.61-2.44a1.1,1.1,0,0,1,1.19-1c.25,0,.54.06.73,0a1.62,1.62,0,0,0,.71-.71c.06-.15-.25-.53-.47-.67a2.12,2.12,0,0,0-.87-.18c-.4,0-.68-.23-.56-.64C30.73,62.59,31.09,61.57,31.37,60.53Zm-4.92,6.79a4.1,4.1,0,0,0-.3,2,4.68,4.68,0,0,1-.16.83l-.27.06c-.63-1.43-2.15-2-3.1-3.12.11-.08.19-.18.28-.19l3.56-.35C26.46,66.86,26.55,67.15,26.45,67.32Zm1.89-8.91a7.22,7.22,0,0,0-.5,1.7A21.71,21.71,0,0,1,27.2,63a1.12,1.12,0,0,0,0,.41c0,.79-.38,1.14-1.19,1.18-.33,0-.67,0-1,0s-.84.18-1.26.24a12.22,12.22,0,0,1-1.29.08,7.2,7.2,0,0,1,2-3,7.26,7.26,0,0,0,1-1.38,18,18,0,0,1,3-3.57A2.49,2.49,0,0,1,28.34,58.41Z"/><path class="cls-3" d="M107.16,24.16c0,.3,0,1.39,0,2.91L54.9,6.16A2,2,0,0,0,54,6h-.09a1,1,0,0,0-.3,0,2.19,2.19,0,0,0-.53.14C35.69,13,18.42,20,1,26.79H1v0c0-.93,0-1.8,0-2.66a1,1,0,0,1,.52-.64,41.37,41.37,0,0,1,4.23-2q7.35-3,14.58-6.3c11-4.48,21.82-9.48,32.82-14.09A2.41,2.41,0,0,1,53.78,1H54a1.84,1.84,0,0,1,.9.18A53.79,53.79,0,0,0,61.4,3.89,72.83,72.83,0,0,0,68.12,6.8c4.47,2.05,9,3.92,13.53,5.89,6.76,2.85,13.52,5.68,20.23,8.63q2.4.91,4.72,2a2,2,0,0,1,.3.18.68.68,0,0,1,.17.21A.74.74,0,0,1,107.16,24.16Z"/><path class="cls-3" d="M110.51,62.71a1.11,1.11,0,0,0-.15-.31.79.79,0,0,1-.29-.23s0,0,0,0A.23.23,0,0,1,110,62a.4.4,0,0,1,0-.26c.06-.13.14-.27.22-.42a1.35,1.35,0,0,0,.08-.24,12.87,12.87,0,0,0,.2-3.77,1.94,1.94,0,0,0-.34-1.17,3.34,3.34,0,0,0-2.36-1.51h-.1a.33.33,0,0,1-.14,0s0,0,0,0c-.52,0-.39-.68-.41-1.1V31.8l-.87-.32c-11.79-4.28-18.73-7-26.08-9.78L54.64,12.12A1.58,1.58,0,0,0,54,12h0a2.66,2.66,0,0,0-.58.13Q46,14.93,38.62,17.67q-9.13,3.42-18.27,6.8l-3.28,1.22-.21.08-5.22,1.94L3,31l-1.75.67-.34.13v6.9c0,16,.09,32.11.06,48.16H106.36c.33,0,.64-.07.64-.47,0-.23,0-.44,0-.67V64.53c0-.17,0-.34,0-.5,0-.45.21-.66.61-.77.18,0,.42,0,.54-.14a.46.46,0,0,1,.41-.15h.11a1.21,1.21,0,0,1,.52.2,2.21,2.21,0,0,0,.94.39h0a.71.71,0,0,0,.2,0,.5.5,0,0,0,.19-.41l0-.18ZM39.78,50.15v32.3c0,1-.1,1.12-1.15,1.12q-16.86,0-33.71,0c-.95,0-1.06-.11-1.06-1q0-17.11,0-34.21c0-.79.84-.72,1.41-.71H38.37c.61,0,1.46-.07,1.41.78C39.79,49,39.78,49.57,39.78,50.15ZM52.05,62.87c-.86.38-1.08-.49-1.35-1.08-.27-.81-.26-.81-1.07-.81H48.12c-.87,0-1.19.26-1.34,1.09s-.37,1-1.35.78c.68-2.55,1.72-5,2.58-7.45.07-.28.19-.47.48-.45s.73-.21.95.27q1.17,2.74,2.1,5.58A4.08,4.08,0,0,1,52.05,62.87Zm4.27-.81V55.68c0-.27-.12-.66.35-.71a.74.74,0,0,1,.71.73c0,1,0,2.1,0,3.15V61c0,.88,0,.9,1,.91H61v1H56.37C56.35,62.59,56.32,62.33,56.32,62.06Zm6,11.21c-.53,0-1.05,0-1.57,0s-.67.15-.58.76c.1,1.54,0,3.12.13,4.67,0,.88-.36,1.25-1.29,1.12-.1-1.91,0-3.85-.05-5.75,0-.75,0-.8-.8-.81H57c0-.36,0-.64,0-1h5.35Zm4-13.11c0,.63,0,1.27,0,1.91s-.11.87-1,.84V55c1.38,0,2.71,0,4,0a.65.65,0,0,1,.49.43.5.5,0,0,1-.53.59H67.26c-.87,0-.89,0-.91.89,0,1.37,0,1.37,1.34,1.37H69.3v1.06H67.22C66.42,59.33,66.37,59.38,66.35,60.16Zm1.82,15c1,0,2,0,3.12,0v1.05c-.8,0-1.57,0-2.32,0-1.39-.13-1.74.45-1.6,1.88,0,.63.08.7.73.72.88,0,1.77,0,2.67,0l.92,0c0,.37,0,.64-.06,1h-5V72.28h5c0,.27,0,.56.07,1-1.21.09-2.32,0-3.52,0-.65,0-.77.14-.79.78,0,.11,0,.22,0,.33C67.39,75.15,67.43,75.19,68.17,75.2Zm6.16-13.3c-.09,1.07-.18,1.14-1.36,1,0-.19,0-.42,0-.58,1-2.25,1.53-4.71,2.53-7a.86.86,0,0,1,1.48,0c.6,1.26,1,2.62,1.5,3.92.35,1.22,1.19,2.34,1.11,3.64-.64.21-1,.11-1.16-.5s-.43-1.44-1.26-1.39S74.5,60.52,74.33,61.9Zm6.64,18a3.34,3.34,0,0,0-.08-.49c-.34-1.12-.37-1.14-1.55-1.13h-.83c-1.55,0-1.62.06-2,1.61H75.27a37.62,37.62,0,0,0,2-5.71,8.41,8.41,0,0,1,.74-2c.59-.06,1.32-.07,1.59.57.87,2.38,1.67,4.71,2.55,7.1Zm4.32-20.51a1,1,0,0,0-.66,1.13c0,.77,0,1.55,0,2.3-.74.23-1.06.06-1.07-.61V55.63c0-.5.24-.69.71-.69,1.47.08,3-.3,4.38.48a1.12,1.12,0,0,1,.65,1.16,4.14,4.14,0,0,1-.25,1.68,1.61,1.61,0,0,1-.85.71c-.71.27-.8.54-.24,1a7.61,7.61,0,0,1,1.67,2.51,1.23,1.23,0,0,1,.07.39c-1.1.2-1.12.19-1.57-.69a7.25,7.25,0,0,0-1.68-2.39C86.09,59.48,85.75,59.18,85.29,59.37Zm7.58,20.51H92c-.16-1.74,0-3.48-.06-5.23,0-.26.07-.62-.33-.61-.1,0-.23.36-.29.57-.46,1.54-.77,3.14-1.14,4.7-.3.65-.32.64-1.22.52q-.6-2.61-1.22-5.27h-.22c-.4,1.42-.1,3-.18,4.43,0,.27,0,.54,0,.87h-1V72.21h1.3c.5,0,.55.5.62.76.59,1.42.5,3.08,1.25,4.4,0,0,0,0,.12.06s.19-.08.22-.15a3,3,0,0,0,.37-1.23,12.93,12.93,0,0,1,.4-2.49,5.7,5.7,0,0,1,.44-1.3h1.87ZM99.24,61a2.16,2.16,0,0,1-1.94,2,5.34,5.34,0,0,1-2-.2,2.21,2.21,0,0,1-1.38-2.06c-.12-1.87,0-3.75,0-5.72h1c.12,1.61.07,3.2,0,4.81a2.71,2.71,0,0,0,.38,1.48,1.59,1.59,0,0,0,2.17.44,1.67,1.67,0,0,0,.74-1.46c-.06-1.76,0-3.49,0-5.25h1C99.34,57,99.23,59,99.24,61Zm7.62-5.13a2.49,2.49,0,0,0-2,2.66c-.15,1.51.21,3.16,1.93,3.51v.85a1.27,1.27,0,0,1-1.11-.12,3.31,3.31,0,0,1-1.91-2.83c0-.17-.13-.31-.17-.47s-.19-.49-.14-.7a17.12,17.12,0,0,1,.73-2.4A2.86,2.86,0,0,1,106.81,55c0,.14.07.3.09.45A1.67,1.67,0,0,1,106.86,55.85Zm2,4.31c-.34.8-.93.16-1.67.06V56.31c.91-.13,1.28.54,1.63,1.07A2.63,2.63,0,0,1,108.88,60.16Z"/><path class="cls-4" d="M107.16,31v.8l-.87-.32c-11.79-4.28-18.73-7-26.08-9.78L54.64,12.12A1.58,1.58,0,0,0,54,12h0a2,2,0,0,0-.73.13q-6.28,2.37-12.56,4.72L28.1,21.56q-8.24,3.06-16.46,6.15L3,31l-1.75.67-.34.13v-.88l1.32-.51.33-.13L53.3,10.52a2.29,2.29,0,0,1,.65-.16h0a1.56,1.56,0,0,1,.58.13c16.06,6.29,30.74,12,47,18.33l3.31,1.29Z"/><path class="cls-5" d="M107.16,27.07v2l-1.43-.49-51-19.87A1.83,1.83,0,0,0,54,8.52h0a1.66,1.66,0,0,0-.7.13C35.77,15.47,18.29,22.18.87,29V26.83A.94.94,0,0,0,1,26.77v.06C18.45,20.06,35.77,13.05,53.16,6.17A2.31,2.31,0,0,1,54,6a1.7,1.7,0,0,1,.8.18C55.34,6.43,77.1,15.1,107.16,27.07Z"/><path class="cls-3" d="M107.17,29v2l-2.29-.89-3.31-1.29c-16.25-6.35-30.93-12-47-18.33a1.56,1.56,0,0,0-.58-.13h0a2.29,2.29,0,0,0-.65.16L2.52,30.25l-.33.13-1.32.51V29c17.42-6.85,34.9-13.56,52.34-20.38a1.83,1.83,0,0,1,.7-.13h0l.81.16Z"/></g></g></svg>